<svg width="462" height="349" viewBox="0 0 462 349" fill="none" xmlns="http://www.w3.org/2000/svg">
<ellipse opacity="0.1" cx="250.365" cy="187.347" rx="90.4537" ry="86.4949" fill="url(#paint0_linear)"/>
<path opacity="0.3" fill-rule="evenodd" clip-rule="evenodd" d="M175.1 187.702C175.1 148.006 208.762 115.825 250.286 115.825C291.81 115.825 325.472 148.006 325.472 187.702C325.472 227.399 291.81 259.58 250.286 259.58C208.762 259.58 175.1 227.399 175.1 187.702ZM323.325 187.703C323.325 149.139 290.624 117.877 250.286 117.877C209.948 117.877 177.247 149.139 177.247 187.703C177.247 226.266 209.948 257.528 250.286 257.528C290.624 257.528 323.325 226.266 323.325 187.703Z" fill="url(#paint1_linear)"/>
<g filter="url(#filter0_d)">
<path fill-rule="evenodd" clip-rule="evenodd" d="M245.561 238.099L207.94 148.872L278.971 161.194L297.817 178.083L245.561 238.099ZM256.485 188.049L284.524 183.261L252.362 220.218L256.485 188.049ZM221.795 163.943L245.241 219.453L249.587 185.633L221.795 163.943ZM263.242 180.334L277.314 169.118L285.425 176.492L263.242 180.334ZM226.74 158.864L252.97 179.45L269.611 166.33L226.74 158.864Z" fill="url(#paint2_linear)"/>
</g>
<g filter="url(#filter1_d)">
<path fill-rule="evenodd" clip-rule="evenodd" d="M250.365 294.286C312.129 294.286 362.198 246.408 362.198 187.347C362.198 187.229 362.198 187.111 362.198 186.993C358.494 187.873 354.641 188.397 350.679 188.524C350.019 240.963 305.36 283.278 250.365 283.278C235.347 283.278 221.1 280.123 208.309 274.467C206.34 277.719 204.019 280.751 201.396 283.517C216.185 290.415 232.802 294.286 250.365 294.286ZM250.365 91.4166C269.742 91.4166 287.837 96.6702 303.176 105.769C305.378 102.701 307.911 99.8642 310.727 97.3074C293.314 86.6118 272.597 80.4082 250.365 80.4082C188.601 80.4082 138.531 128.286 138.531 187.347C138.531 191.341 138.76 195.283 139.206 199.163C142.779 197.744 146.541 196.673 150.445 195.994C150.179 193.146 150.043 190.262 150.043 187.347C150.043 134.366 194.959 91.4166 250.365 91.4166Z" fill="url(#paint3_linear)"/>
</g>
<path opacity="0.4" fill-rule="evenodd" clip-rule="evenodd" d="M110.238 174.133C108.892 185.618 109.042 196.91 110.537 207.828C106.31 210.654 102.446 213.972 99.0414 217.704C90.1641 174.537 102.65 131.092 130.169 98.036C133.324 100.184 136.874 101.85 140.716 102.912C124.371 122.794 113.397 147.175 110.238 174.133ZM186.287 66.1848C210.402 53.7427 238.343 47.7951 267.331 50.5276C291.138 52.7718 312.896 60.6107 331.382 72.5734C334.79 70.48 338.402 68.682 342.174 67.2127C305.327 42.6827 257.161 33.8136 209.94 46.9618C200.797 49.5076 192.073 52.772 183.818 56.6701C185.096 59.6617 185.942 62.8593 186.287 66.1848ZM292.634 327.896C248.815 340.097 204.182 333.338 168.536 312.7C172.356 311.215 176.004 309.375 179.43 307.22C196.026 316.401 214.886 322.411 235.244 324.33C313.143 331.673 383.476 276.333 392.336 200.725C393.04 194.722 393.335 188.772 393.242 182.9C397.796 180.867 402.086 178.345 406.032 175.398C410.721 243.134 364.692 307.832 292.634 327.896Z" fill="#510E0F"/>
<ellipse opacity="0.3" cx="431.068" cy="312.263" rx="30.244" ry="28.9132" fill="#5E1010"/>
<ellipse opacity="0.1" cx="44.3238" cy="41.9242" rx="44.2318" ry="41.9242" fill="#5E1010"/>
<path d="M159.481 214.549L132.2 220.301L129.75 220.692C128.344 220.916 127.313 222.08 127.313 223.443V256.767C127.313 259.42 127.945 262.043 129.192 264.61C130.283 266.877 131.693 269.075 133.418 271.208L134.813 272.892L135.258 273.42L135.363 273.542C135.996 274.282 136.556 274.902 137.145 275.504C137.729 276.1 138.332 276.669 138.986 277.235L139.71 277.852L140.133 278.219L141.95 279.818L142.413 280.221C142.489 280.286 142.563 280.35 142.636 280.413L143.067 280.778L143.479 281.12L143.877 281.441C144.072 281.597 144.263 281.746 144.452 281.89L144.826 282.169C145.197 282.441 145.563 282.694 145.937 282.937L146.124 283.057C146.468 283.276 146.803 283.487 147.13 283.69L147.774 284.085L148.399 284.461C149.425 285.071 150.381 285.603 151.312 286.078L151.867 286.357C152.236 286.538 152.602 286.711 152.968 286.877C155.258 287.915 157.308 288.641 159.135 289.05L159.891 289.2C160.21 289.263 160.538 289.274 160.86 289.234L161.315 289.156L161.761 289.076L161.831 289.062L161.902 289.047C162.095 289.002 162.291 288.956 162.49 288.908L163.095 288.759L163.711 288.601C163.814 288.574 163.918 288.546 164.021 288.518L164.646 288.348L165.27 288.17C165.478 288.11 165.685 288.049 165.89 287.987L166.501 287.799C167.709 287.418 168.835 287.015 169.712 286.627L170.381 286.323L172.395 285.436L172.649 285.323L173.129 285.105L173.579 284.896L174.009 284.69C174.079 284.655 174.149 284.621 174.219 284.586C175.216 284.092 176.111 283.588 176.957 283.03C178.039 282.316 179.037 281.55 180.192 280.571L180.828 280.022L183.312 277.838C184.411 276.885 185.278 275.977 186.311 274.724L186.662 274.292C186.722 274.218 186.782 274.143 186.843 274.066L187.219 273.591L188.359 272.126L188.8 271.57C190.605 269.315 192.068 266.987 193.192 264.568C194.382 262.007 194.985 259.399 194.985 256.767V223.443C194.985 222.182 194.102 221.084 192.84 220.753L190.866 220.32L190.755 220.297L160.682 214.538C160.285 214.462 159.876 214.466 159.481 214.549Z" fill="#1D030A"/>
<path opacity="0.2" d="M189.26 256.238C189.26 258.254 188.795 260.259 187.867 262.252C186.936 264.251 185.721 266.181 184.216 268.056C182.712 269.929 181.511 271.704 179.579 273.376C177.645 275.051 176.099 276.542 174.112 277.85C172.122 279.16 169.985 279.946 168.11 280.812C166.235 281.678 162.806 282.576 161.393 282.9L160.724 283.02L160.111 282.9C158.662 282.576 156.982 281.982 155.067 281.116C153.153 280.25 151.277 279.16 149.215 277.85C147.153 276.542 145.339 274.738 143.35 273.063C141.363 271.391 140.198 269.929 138.637 268.056C137.077 266.181 135.814 264.251 134.85 262.252C133.88 260.259 133.398 258.254 133.398 256.238V226.191L135.683 225.826L160.39 220.627L187.588 225.826L189.26 226.191V256.238Z" fill="url(#paint4_linear)"/>
<path fill-rule="evenodd" clip-rule="evenodd" d="M198.088 266.38C199.336 263.607 199.962 260.818 199.962 258.013V216.207L159.886 208.466L122.336 216.207V258.013C122.336 260.818 122.985 263.607 124.289 266.38C125.585 269.161 127.283 271.846 129.382 274.456C131.48 277.061 133.867 279.531 136.539 281.857C139.215 284.187 141.935 286.262 144.709 288.081C147.482 289.905 150.154 291.421 152.728 292.626C155.303 293.831 157.562 294.657 159.511 295.108L160.335 295.275L161.235 295.108C161.655 295.008 162.222 294.89 162.876 294.753C165.182 294.273 168.58 293.564 170.545 292.626C173.067 291.421 175.664 289.905 178.339 288.081C181.011 286.262 183.646 284.187 186.246 281.857C188.843 279.531 191.156 277.061 193.179 274.456C195.203 271.846 196.837 269.161 198.088 266.38ZM193.08 264.277C194.158 261.906 194.699 259.521 194.699 257.123V221.375L192.756 220.942L160.057 214.756L130.255 220.942L127.599 221.375V257.123C127.599 259.521 128.16 261.906 129.287 264.277C130.408 266.655 131.875 268.951 133.689 271.182C135.503 273.41 137.567 275.522 139.876 277.511C142.189 279.504 144.541 281.278 146.938 282.833C149.335 284.393 151.645 285.689 153.87 286.719C156.095 287.75 158.049 288.456 159.733 288.842L160.446 288.985L161.223 288.842C161.587 288.756 162.076 288.655 162.642 288.539C164.635 288.128 167.573 287.522 169.271 286.719C171.451 285.689 173.696 284.393 176.008 282.833C178.318 281.278 180.595 279.504 182.843 277.511C185.088 275.522 187.087 273.41 188.836 271.182C190.585 268.951 191.998 266.655 193.08 264.277Z" fill="url(#paint5_linear)"/>
<path fill-rule="evenodd" clip-rule="evenodd" d="M163.463 248.188C166.082 247.36 167.972 245.003 167.972 242.225C167.972 238.757 165.027 235.946 161.394 235.946C157.76 235.946 154.815 238.757 154.815 242.225C154.815 244.747 156.373 246.922 158.62 247.921V260.233L163.463 263.37V248.188Z" fill="url(#paint6_linear)"/>
<rect x="313.403" y="120.517" width="68.4159" height="46.55" rx="3.71871" fill="#1D030A"/>
<rect opacity="0.2" x="318.649" y="126.278" width="56.9683" height="35.4265" fill="url(#paint7_linear)"/>
<path fill-rule="evenodd" clip-rule="evenodd" d="M359.804 137.384C358.932 136.391 357.39 136.256 356.36 137.083L344.678 146.461L339.891 141.375C338.978 140.405 337.418 140.323 336.408 141.192C335.399 142.061 335.321 143.551 336.233 144.521L342.609 151.295C343.522 152.265 345.081 152.347 346.091 151.478C346.148 151.429 346.202 151.378 346.253 151.325L359.517 140.678C360.547 139.851 360.675 138.376 359.804 137.384Z" fill="url(#paint8_linear)"/>
<path fill-rule="evenodd" clip-rule="evenodd" d="M321.297 106.592C321.297 97.6064 328.581 90.3223 337.566 90.3223H357.655C366.641 90.3223 373.925 97.6064 373.925 106.592V116.743H368.662V104.652C368.662 99.5171 364.5 95.3548 359.365 95.3548H335.857C330.722 95.3548 326.56 99.5171 326.56 104.652V116.743H321.297V106.592Z" fill="url(#paint9_linear)"/>
<path fill-rule="evenodd" clip-rule="evenodd" d="M315.578 115.484C311.47 115.484 308.14 118.814 308.14 122.922V164.662C308.14 168.77 311.47 172.099 315.578 172.099H379.644C383.752 172.099 387.082 168.77 387.082 164.662V122.922C387.082 118.814 383.752 115.484 379.644 115.484H315.578ZM317.122 120.517C315.068 120.517 313.403 122.182 313.403 124.236V163.348C313.403 165.402 315.068 167.067 317.122 167.067H378.1C380.154 167.067 381.819 165.402 381.819 163.348V124.236C381.819 122.182 380.154 120.517 378.1 120.517H317.122Z" fill="url(#paint10_linear)"/>
<defs>
<filter id="filter0_d" x="180.94" y="128.872" width="143.877" height="143.227" filterUnits="userSpaceOnUse" color-interpolation-filters="sRGB">
<feFlood flood-opacity="0" result="BackgroundImageFix"/>
<feColorMatrix in="SourceAlpha" type="matrix" values="0 0 0 0 0 0 0 0 0 0 0 0 0 0 0 0 0 0 127 0"/>
<feOffset dy="7"/>
<feGaussianBlur stdDeviation="13.5"/>
<feColorMatrix type="matrix" values="0 0 0 0 0.567312 0 0 0 0 0.153284 0 0 0 0 0.126543 0 0 0 0.401115 0"/>
<feBlend mode="normal" in2="BackgroundImageFix" result="effect1_dropShadow"/>
<feBlend mode="normal" in="SourceGraphic" in2="effect1_dropShadow" result="shape"/>
</filter>
<filter id="filter1_d" x="109.531" y="58.4082" width="281.667" height="271.878" filterUnits="userSpaceOnUse" color-interpolation-filters="sRGB">
<feFlood flood-opacity="0" result="BackgroundImageFix"/>
<feColorMatrix in="SourceAlpha" type="matrix" values="0 0 0 0 0 0 0 0 0 0 0 0 0 0 0 0 0 0 127 0"/>
<feOffset dy="7"/>
<feGaussianBlur stdDeviation="14.5"/>
<feColorMatrix type="matrix" values="0 0 0 0 0.424281 0 0 0 0 0.0813529 0 0 0 0 0.0592037 0 0 0 0.466974 0"/>
<feBlend mode="normal" in2="BackgroundImageFix" result="effect1_dropShadow"/>
<feBlend mode="normal" in="SourceGraphic" in2="effect1_dropShadow" result="shape"/>
</filter>
<linearGradient id="paint0_linear" x1="103.957" y1="26.4558" x2="121.746" y2="291.735" gradientUnits="userSpaceOnUse">
<stop stop-color="#972424"/>
<stop offset="1" stop-color="#5E1010"/>
</linearGradient>
<linearGradient id="paint1_linear" x1="128.591" y1="54.0011" x2="143.37" y2="274.45" gradientUnits="userSpaceOnUse">
<stop stop-color="#972424"/>
<stop offset="1" stop-color="#5E1010"/>
</linearGradient>
<linearGradient id="paint2_linear" x1="185.169" y1="157.438" x2="202.182" y2="285.011" gradientUnits="userSpaceOnUse">
<stop stop-color="#AE2222"/>
<stop offset="1" stop-color="#7F1111"/>
</linearGradient>
<linearGradient id="paint3_linear" x1="69.3522" y1="-11.5731" x2="91.3456" y2="316.409" gradientUnits="userSpaceOnUse">
<stop stop-color="#972424"/>
<stop offset="1" stop-color="#5E1010"/>
</linearGradient>
<linearGradient id="paint4_linear" x1="116.12" y1="193.794" x2="123.602" y2="289.318" gradientUnits="userSpaceOnUse">
<stop stop-color="#972424"/>
<stop offset="1" stop-color="#5E1010"/>
</linearGradient>
<linearGradient id="paint5_linear" x1="98.3271" y1="171.132" x2="108.75" y2="304.036" gradientUnits="userSpaceOnUse">
<stop stop-color="#972424"/>
<stop offset="1" stop-color="#5E1010"/>
</linearGradient>
<linearGradient id="paint6_linear" x1="150.746" y1="224.152" x2="156.791" y2="265.512" gradientUnits="userSpaceOnUse">
<stop stop-color="#972424"/>
<stop offset="1" stop-color="#5E1010"/>
</linearGradient>
<linearGradient id="paint7_linear" x1="301.029" y1="111.042" x2="303.404" y2="165.509" gradientUnits="userSpaceOnUse">
<stop stop-color="#972424"/>
<stop offset="1" stop-color="#5E1010"/>
</linearGradient>
<linearGradient id="paint8_linear" x1="327.931" y1="129.859" x2="328.981" y2="153.748" gradientUnits="userSpaceOnUse">
<stop stop-color="#972424"/>
<stop offset="1" stop-color="#5E1010"/>
</linearGradient>
<linearGradient id="paint9_linear" x1="305.02" y1="78.96" x2="306.451" y2="119.607" gradientUnits="userSpaceOnUse">
<stop stop-color="#972424"/>
<stop offset="1" stop-color="#5E1010"/>
</linearGradient>
<linearGradient id="paint10_linear" x1="283.724" y1="91.1365" x2="288.099" y2="178.126" gradientUnits="userSpaceOnUse">
<stop stop-color="#972424"/>
<stop offset="1" stop-color="#5E1010"/>
</linearGradient>
</defs>
</svg>
